<?xml version="1.0" standalone="no"?>
<!DOCTYPE svg PUBLIC "-//W3C//DTD SVG 20010904//EN"
 "http://www.w3.org/TR/2001/REC-SVG-20010904/DTD/svg10.dtd">
<svg version="1.0" xmlns="http://www.w3.org/2000/svg"
 width="360.000000pt" height="360.000000pt" viewBox="0 0 360.000000 360.000000"
 preserveAspectRatio="xMidYMid meet">

<g transform="translate(0.000000,360.000000) scale(0.100000,-0.100000)"
fill="#334155" stroke="none">
<path d="M1635 3474 c-113 -17 -212 -40 -295 -66 -545 -174 -962 -644 -1077
-1213 -25 -126 -25 -423 0 -550 79 -396 319 -772 637 -997 138 -98 210 -132
256 -123 77 14 122 98 90 167 -12 25 -38 47 -98 83 -351 209 -569 511 -645
893 -23 120 -23 384 0 505 107 541 503 937 1044 1044 62 12 137 17 253 17 116
0 191 -5 253 -17 541 -107 937 -503 1044 -1044 23 -121 23 -385 0 -505 -75
-378 -300 -691 -639 -889 -82 -48 -104 -70 -112 -114 -13 -68 33 -130 105
-141 103 -17 449 259 611 487 129 181 223 394 270 613 29 137 32 435 5 571
-127 630 -613 1123 -1239 1256 -91 20 -389 34 -463 23z"/>
<path d="M1616 2984 c-447 -88 -804 -450 -881 -893 -56 -317 53 -673 278 -908
82 -86 145 -96 208 -33 24 24 29 37 29 79 0 48 -3 54 -66 123 -183 203 -256
453 -209 723 74 420 439 707 870 681 392 -23 693 -275 776 -651 8 -35 13 -117
13 -195 -1 -116 -5 -147 -28 -223 -43 -143 -89 -223 -195 -340 -58 -64 -61
-70 -61 -118 0 -42 5 -55 29 -79 64 -65 127 -54 212 37 258 276 353 683 242
1038 -122 390 -463 690 -862 760 -102 18 -262 18 -355 -1z"/>
<path d="M1691 2266 c-70 -23 -147 -82 -190 -147 -122 -183 -54 -427 147 -526
50 -25 68 -28 152 -28 84 0 102 3 152 28 74 36 139 101 175 175 25 50 28 68
28 152 0 84 -3 102 -28 152 -35 71 -104 140 -175 175 -67 33 -191 41 -261 19z"/>
<path d="M1683 1301 c-144 -53 -243 -189 -243 -331 0 -59 115 -749 136 -811
16 -51 67 -110 116 -135 42 -22 124 -29 176 -15 47 13 110 64 142 116 29 47
154 784 147 870 -9 120 -90 236 -204 291 -75 37 -193 44 -270 15z"/>
</g>
</svg>
