<svg xmlns="http://www.w3.org/2000/svg" width="512" height="512" fill="#fff" fill-rule="evenodd">
    <path fill="#0f0f0f" style="fill:'#0f0f0f'; stroke:'none';" d="M110 269C110.027 228.463 122.356 182.536 153.039 154.285C164.15 144.056 176.572 135.19 190 128.258C203.29 121.398 219.813 116.706 220.906 99C221.574 88.177 214.726 78.5108 210.576 69C205.351 57.0263 199.464 38.3967 187 32.4028C172.591 25.4734 157.692 34.9007 145 41.2469C111.496 57.999 81.7279 80.5174 57.2855 109C-6.73092 183.598 0 288.05 0 380L0 444C0 453.785 -1.68846 464.691 4.92824 472.826C15.6334 485.989 36.0031 482 51 482L151 482C164.756 482 184.124 485.472 197 480.235C215.162 472.849 212 452.859 212 437L212 323C212 309.328 215.88 289.323 206.471 278.093C198.818 268.962 186.869 269 176 269L110 269M402 269C402 226.18 414.922 181.919 447 152.09C458.706 141.204 472.761 132.721 487 125.602C498.198 120.003 510.723 115.429 511.907 101C512.893 88.9842 507.038 80.5729 502.424 70C497.11 57.8199 490.932 38.2883 478 32.5293C463.933 26.2652 449.453 34.9811 437 41.2477C403.968 57.8697 373.254 80.6244 349.438 109C285.597 185.063 292 286.74 292 380L292 444C292 453.785 290.312 464.691 296.928 472.826C307.633 485.989 328.003 482 343 482L443 482C456.756 482 476.124 485.472 489 480.235C507.318 472.785 504 453 504 437L504 323C504 309.328 507.88 289.323 498.471 278.093C490.818 268.962 478.869 269 468 269L402 269z" />
</svg>