<svg xmlns="http://www.w3.org/2000/svg" width="512" height="512" fill="#fff" fill-rule="evenodd">
    <path fill="#0f0f0f" style="fill:'#0f0f0f'; stroke:'none';" d="M110 243C109.63 287.675 95.1334 331.099 62 361.91C51.468 371.704 38.8033 379.351 26 385.753C14.2471 391.63 1.29982 397.062 0.0933642 412C-0.915099 424.487 5.07433 434.108 10.2191 445C15.8195 456.856 20.3335 473.508 33 479.597C47.6556 486.643 62.1006 477.697 75 471.247C109.047 454.223 139.194 431.054 163.866 402C227.124 327.504 220 223.438 220 132L220 69C220 58.5599 221.496 47.7262 214.471 39.0401C203.935 26.0151 183.8 30 169 30L69 30C55.5554 30 36.6434 26.6108 24 31.4684C6.03627 38.3699 7 57.0151 7 73L7 187C7 201.216 3.46854 221.29 13.3295 232.985C21.857 243.1 33.8328 243 46 243L110 243M402 243C401.88 286.713 387.595 330.91 354.996 361C343.968 371.179 331.303 379.063 318 385.892C306.493 391.799 293.316 397.104 292.093 412C291.084 424.297 296.987 434.308 302.244 445C308.307 457.332 312.436 474.007 326 480.095C340.117 486.431 355.577 477.474 368 471.247C400.434 454.99 430.031 432.633 453.573 405C518.175 329.168 512 226.389 512 133L512 69C512 58.5599 513.496 47.7262 506.471 39.0401C495.935 26.0151 475.8 30 461 30L361 30C347.555 30 328.643 26.6108 316 31.4684C298.296 38.2699 299 57.1828 299 73L299 187C299 201.216 295.469 221.29 305.329 232.985C313.857 243.1 325.833 243 338 243L402 243z" />
</svg>