<?xml version="1.0" standalone="no"?>
<!DOCTYPE svg PUBLIC "-//W3C//DTD SVG 20010904//EN"
 "http://www.w3.org/TR/2001/REC-SVG-20010904/DTD/svg10.dtd">
<svg version="1.0" xmlns="http://www.w3.org/2000/svg"
 width="360.000000pt" height="360.000000pt" viewBox="0 0 360.000000 360.000000"
 preserveAspectRatio="xMidYMid meet">

<g transform="translate(0.000000,360.000000) scale(0.100000,-0.100000)"
fill="#334155" stroke="none">
<path d="M1540 3574 c-398 -61 -766 -251 -1037 -537 -269 -285 -439 -646 -483
-1026 -18 -149 -8 -418 19 -555 48 -237 163 -505 298 -696 87 -122 301 -336
423 -423 193 -136 443 -244 690 -299 94 -20 132 -23 350 -23 277 0 350 11 570
84 268 90 476 217 683 420 263 257 428 558 509 931 20 93 22 133 22 350 0 218
-2 257 -22 350 -37 166 -89 314 -163 460 -269 527 -765 882 -1350 965 -130 18
-383 18 -509 -1z m470 -958 c167 -24 357 -63 494 -102 230 -66 507 -191 568
-257 97 -102 17 -277 -127 -277 -23 0 -75 20 -153 59 -254 129 -526 207 -860
246 -374 44 -765 24 -1081 -56 -111 -28 -128 -30 -164 -19 -55 16 -113 75
-122 123 -19 98 35 174 147 208 91 27 287 65 408 78 52 6 109 13 125 15 80 11
656 -3 765 -18z m-205 -606 c318 -35 665 -140 914 -279 108 -60 141 -97 141
-157 0 -121 -110 -181 -220 -119 -495 281 -1151 365 -1713 218 -111 -29 -150
-26 -197 13 -60 51 -63 150 -6 203 56 53 308 107 626 135 71 6 345 -2 455 -14z
m-44 -580 c273 -28 546 -112 765 -236 83 -47 114 -81 114 -129 0 -65 -63 -122
-124 -112 -17 3 -66 25 -108 50 -156 89 -368 159 -584 193 -223 34 -570 19
-843 -37 -131 -27 -147 -25 -187 15 -28 28 -34 42 -34 76 0 34 6 48 32 74 30
30 45 35 173 59 129 24 249 42 350 50 95 8 351 6 446 -3z"/>
</g>
</svg>
